<svg width="30" height="30" viewBox="0 0 30 30" fill="none" xmlns="http://www.w3.org/2000/svg">
<g clip-path="url(#clip0_162_605)">
<path fill-rule="evenodd" clip-rule="evenodd" d="M14.375 10.625C15.038 10.625 15.6739 10.3616 16.1428 9.89277C16.6116 9.42393 16.875 8.78804 16.875 8.125C16.875 7.46196 16.6116 6.82607 16.1428 6.35723C15.6739 5.88839 15.038 5.625 14.375 5.625C13.712 5.625 13.0761 5.88839 12.6072 6.35723C12.1384 6.82607 11.875 7.46196 11.875 8.125C11.875 8.78804 12.1384 9.42393 12.6072 9.89277C13.0761 10.3616 13.712 10.625 14.375 10.625ZM21.5225 11.865C21.606 12.1858 21.5585 12.5267 21.3907 12.8125C21.2229 13.0984 20.9483 13.3059 20.6275 13.3894C19.5 13.6831 18.475 13.9081 17.5 14.0619V18.0469L18.1156 22.97C18.1553 23.2861 18.0728 23.6054 17.8849 23.8628C17.697 24.1201 17.418 24.2959 17.1048 24.3544C16.7917 24.4129 16.468 24.3496 16.1999 24.1774C15.9318 24.0053 15.7396 23.7373 15.6625 23.4281L14.4125 18.4281C14.3875 18.3277 14.375 18.2267 14.375 18.125C14.375 18.2267 14.3625 18.3277 14.3375 18.4281L13.0875 23.4281C13.0104 23.7373 12.8182 24.0053 12.5501 24.1774C12.2821 24.3496 11.9584 24.4129 11.6452 24.3544C11.332 24.2959 11.053 24.1201 10.8651 23.8628C10.6772 23.6054 10.5947 23.2861 10.6344 22.97L11.25 18.0469V14.0456C10.2781 13.8906 9.2575 13.6706 8.13688 13.3931C7.81506 13.3134 7.53809 13.1091 7.3669 12.8251C7.19571 12.5412 7.14434 12.2009 7.22407 11.8791C7.3038 11.5572 7.50811 11.2803 7.79205 11.1091C8.07599 10.9379 8.41631 10.8865 8.73813 10.9662C11.0119 11.53 12.7125 11.8069 14.38 11.8138C16.0438 11.82 17.7394 11.5581 19.9975 10.97C20.1564 10.9286 20.3219 10.9189 20.4846 10.9415C20.6472 10.964 20.8038 11.0184 20.9454 11.1015C21.0871 11.1847 21.2109 11.2949 21.3099 11.4259C21.4089 11.5569 21.4812 11.7061 21.5225 11.865Z" fill="#396AFF"/>
</g>
<defs>
<clipPath id="clip0_162_605">
<rect width="30" height="30" fill="white"/>
</clipPath>
</defs>
</svg>
