<svg width="30" height="30" viewBox="0 0 30 30" fill="none" xmlns="http://www.w3.org/2000/svg">
<g clip-path="url(#clip0_162_610)">
<path fill-rule="evenodd" clip-rule="evenodd" d="M15 10.625C15.5802 10.625 16.1366 10.3945 16.5468 9.9843C16.957 9.57406 17.1875 9.01766 17.1875 8.4375C17.1875 7.85734 16.957 7.30094 16.5468 6.8907C16.1366 6.48047 15.5802 6.25 15 6.25C14.4198 6.25 13.8634 6.48047 13.4532 6.8907C13.043 7.30094 12.8125 7.85734 12.8125 8.4375C12.8125 9.01766 13.043 9.57406 13.4532 9.9843C13.8634 10.3945 14.4198 10.625 15 10.625ZM21.5675 13.3888C21.7272 13.3479 21.8772 13.2759 22.0089 13.1769C22.1406 13.0779 22.2515 12.9538 22.3351 12.8117C22.4187 12.6697 22.4734 12.5125 22.496 12.3493C22.5186 12.186 22.5087 12.0199 22.4669 11.8605C22.4251 11.7011 22.3521 11.5516 22.2523 11.4204C22.1525 11.2893 22.0277 11.1792 21.8851 11.0965C21.7426 11.0138 21.5851 10.9601 21.4217 10.9385C21.2583 10.9169 21.0923 10.9278 20.9331 10.9706C18.5525 11.595 16.7631 11.8744 15.005 11.8669C13.2431 11.86 11.4488 11.565 9.05313 10.9669C8.73147 10.8865 8.39105 10.9372 8.10676 11.1078C7.82246 11.2784 7.61758 11.5549 7.53719 11.8766C7.4568 12.1982 7.50747 12.5386 7.67807 12.8229C7.84867 13.1072 8.12522 13.3121 8.44688 13.3925C9.60313 13.6812 10.6563 13.91 11.6594 14.0737C11.4619 15.3862 10.4119 17.5481 9.80625 18.715C9.60375 19.1056 9.8475 19.5869 10.2838 19.6419C13.9944 20.1119 16.3413 20.1244 19.7556 19.6494C20.1806 19.59 20.4181 19.1256 20.2269 18.7413C19.6369 17.5594 18.5769 15.3219 18.3519 14.0894C19.3544 13.9269 20.4088 13.6919 21.5675 13.3888ZM11.875 20.6337V22.8125C11.8751 23.0397 11.9577 23.2592 12.1075 23.4301C12.2572 23.601 12.464 23.7117 12.6892 23.7415C12.9145 23.7714 13.1429 23.7185 13.3321 23.5925C13.5212 23.4666 13.6582 23.2762 13.7175 23.0569L14.305 20.88C13.4914 20.8386 12.6804 20.7564 11.875 20.6337ZM16.3188 20.8756L16.9075 23.0569C16.9668 23.2762 17.1038 23.4666 17.2929 23.5925C17.4821 23.7185 17.7105 23.7714 17.9358 23.7415C18.161 23.7117 18.3678 23.601 18.5175 23.4301C18.6673 23.2592 18.7499 23.0397 18.75 22.8125V20.625C17.944 20.747 17.1327 20.831 16.3188 20.8756Z" fill="#FF82AC"/>
</g>
<defs>
<clipPath id="clip0_162_610">
<rect width="30" height="30" fill="white"/>
</clipPath>
</defs>
</svg>
