<svg width="500" height="544" viewBox="0 0 500 544" fill="none" xmlns="http://www.w3.org/2000/svg">
<path d="M250.148 0C274.946 0 298.728 8.59712 316.262 23.9001C333.797 39.2031 343.647 59.9583 343.647 81.6C343.647 103.242 333.797 123.997 316.262 139.3C298.728 154.603 274.946 163.2 250.148 163.2C225.351 163.2 201.569 154.603 184.034 139.3C166.5 123.997 156.649 103.242 156.649 81.6C156.649 59.9583 166.5 39.2031 184.034 23.9001C201.569 8.59712 225.351 0 250.148 0ZM499.479 435.2L437.146 287.232C426.238 260.304 416.577 236.912 374.814 217.6C331.804 198.56 300.638 190.4 250.148 190.4C199.347 190.4 168.492 198.56 125.483 217.6C83.72 236.912 74.0584 260.304 63.1502 287.232L0.817488 435.2C-9.15574 471.92 74.3701 501.568 128.911 521.968V462.4C128.911 436.56 155.714 418.336 209.32 407.184C214.307 406.096 218.982 405.552 222.722 405.008C205.892 382.704 199.035 362.848 198.412 361.216L253.577 344.896C253.888 345.44 269.783 388.144 307.494 409.632C314.039 411.536 320.584 413.712 326.818 416.16C350.816 425.408 365.152 437.376 369.827 451.792C328.064 466.208 288.171 473.552 250.148 473.552L218.982 470.832V542.368L250.148 544C292.846 544 333.362 536.384 371.385 521.968C425.927 501.568 507.271 465.936 499.479 435.2ZM359.231 408C346.832 408 334.941 403.701 326.174 396.05C317.406 388.398 312.481 378.021 312.481 367.2C312.481 356.379 317.406 346.002 326.174 338.35C334.941 330.699 346.832 326.4 359.231 326.4C371.629 326.4 383.52 330.699 392.287 338.35C401.055 346.002 405.98 356.379 405.98 367.2C405.98 378.021 401.055 388.398 392.287 396.05C383.52 403.701 371.629 408 359.231 408Z" fill="#424F5E"/>
</svg>
